<?xml version="1.0" encoding="UTF-8" standalone="no"?>
<!-- Created with Inkscape (http://www.inkscape.org/) -->

<svg
   xmlns:dc="http://purl.org/dc/elements/1.1/"
   xmlns:cc="http://creativecommons.org/ns#"
   xmlns:rdf="http://www.w3.org/1999/02/22-rdf-syntax-ns#"
   xmlns:svg="http://www.w3.org/2000/svg"
   xmlns="http://www.w3.org/2000/svg"
   xmlns:sodipodi="http://sodipodi.sourceforge.net/DTD/sodipodi-0.dtd"
   xmlns:inkscape="http://www.inkscape.org/namespaces/inkscape"
   width="127.14367mm"
   height="113.9445mm"
   viewBox="0 0 127.14367 113.9445"
   version="1.1"
   id="svg8"
   inkscape:version="0.92.3 (2405546, 2018-03-11)"
   sodipodi:docname="mojeLogo.svg">
  <defs
     id="defs2">
    <inkscape:perspective
       sodipodi:type="inkscape:persp3d"
       inkscape:vp_x="0 : 148.49999 : 1"
       inkscape:vp_y="0 : 999.99991 : 0"
       inkscape:vp_z="210.00001 : 148.49999 : 1"
       inkscape:persp3d-origin="105 : 98.999992 : 1"
       id="perspective1514" />
  </defs>
  <sodipodi:namedview
     id="base"
     pagecolor="#ffffff"
     bordercolor="#666666"
     borderopacity="1.0"
     inkscape:pageopacity="0.0"
     inkscape:pageshadow="2"
     inkscape:zoom="1.4142136"
     inkscape:cx="125.28447"
     inkscape:cy="222.02379"
     inkscape:document-units="mm"
     inkscape:current-layer="layer1"
     showgrid="false"
     inkscape:window-width="1920"
     inkscape:window-height="1015"
     inkscape:window-x="1920"
     inkscape:window-y="0"
     inkscape:window-maximized="1"
     showguides="true"
     inkscape:guide-bbox="true"
     fit-margin-top="0"
     fit-margin-left="0"
     fit-margin-right="0"
     fit-margin-bottom="0" />
  <metadata
     id="metadata5">
    <rdf:RDF>
      <cc:Work
         rdf:about="">
        <dc:format>image/svg+xml</dc:format>
        <dc:type
           rdf:resource="http://purl.org/dc/dcmitype/StillImage" />
        <dc:title></dc:title>
      </cc:Work>
    </rdf:RDF>
  </metadata>
  <g
     inkscape:label="Layer 1"
     inkscape:groupmode="layer"
     id="layer1"
     transform="translate(-34.102463,-21.669122)">
    <rect
       style="fill:#393e46;fill-opacity:1;stroke:none;stroke-width:0.87837619;stroke-miterlimit:4;stroke-dasharray:none;stroke-opacity:1"
       id="rect57"
       width="21.929405"
       height="21.895308"
       x="139.31673"
       y="113.63334"
       ry="2" />
    <g
       id="g1651"
       transform="rotate(9.0746583,86.604402,282.94611)">
      <g
         transform="rotate(-11.302356,83.057141,247.2871)"
         id="g1622">
        <rect
           id="rect10"
           width="100"
           height="10"
           x="55.652538"
           y="99.414619"
           style="fill:#fc3c3c;fill-opacity:0.73737368;stroke-width:0.26458332"
           transform="rotate(11.305082)"
           ry="2" />
        <rect
           id="rect10-3"
           width="100"
           height="10"
           x="9.4146223"
           y="-155.65253"
           style="fill:#00adb5;fill-opacity:0.80808082;stroke-width:0.26458332"
           transform="rotate(101.30508)"
           ry="2" />
        <rect
           id="rect10-3-6"
           width="100"
           height="10"
           x="9.4146166"
           y="-65.652534"
           style="fill:#f8b500;fill-opacity:0.81818183;stroke:none;stroke-width:0.26499999;stroke-miterlimit:4;stroke-dasharray:none;stroke-opacity:1;paint-order:stroke fill markers"
           transform="rotate(101.30508)"
           ry="2" />
        <rect
           id="rect10-7"
           width="100"
           height="10"
           x="55.652538"
           y="9.4146166"
           style="fill:#fff4e0;fill-opacity:0.83838387;stroke-width:0.26458332"
           transform="rotate(11.305082)"
           ry="2" />
      </g>
      <rect
         y="40.489479"
         x="18.76433"
         height="80.012436"
         width="80.031799"
         id="rect1633"
         style="fill:#ffffff;fill-opacity:1;stroke:none;stroke-width:1.01168573;stroke-miterlimit:4;stroke-dasharray:none;stroke-opacity:1;paint-order:stroke fill markers" />
    </g>
    <g
       id="g1631">
      <path
         d="m 112.18882,55.664226 c 0,1.027761 -0.37864,1.893242 -1.13594,2.596444 -0.7032,0.703204 -1.56868,1.054806 -2.59644,1.054806 -1.02776,0 -1.89324,-0.351602 -2.59645,-1.054806 -0.7032,-0.703202 -1.0548,-1.568683 -1.0548,-2.596444 0,-0.973666 0.3516,-1.812102 1.0548,-2.515306 0.70321,-0.757296 1.56869,-1.135944 2.59645,-1.135944 1.02776,0 1.89324,0.378648 2.59644,1.135944 0.7573,0.703204 1.13594,1.54164 1.13594,2.515306 z m -7.29544,-8.152693 c 0,1.027758 -0.37864,1.89324 -1.13594,2.596444 -0.7032,0.703204 -1.56868,1.054806 -2.59645,1.054806 -1.02775,0 -1.893235,-0.351602 -2.596445,-1.054806 -0.7032,-0.703204 -1.054802,-1.568686 -1.054802,-2.596444 0,-1.02776 0.351602,-1.893242 1.054802,-2.596446 0.70321,-0.703201 1.568695,-1.054804 2.596445,-1.054804 1.02777,0 1.89325,0.351603 2.59645,1.054804 0.7573,0.703204 1.13594,1.568686 1.13594,2.596446 z m -9.247449,-1.957986 c 0,1.02776 -0.378648,1.893241 -1.135946,2.596443 -0.703202,0.703204 -1.568683,1.054807 -2.596443,1.054807 -1.027761,0 -1.893242,-0.351603 -2.596444,-1.054807 -0.703204,-0.703202 -1.054806,-1.568683 -1.054806,-2.596443 0,-1.027761 0.351602,-1.893242 1.054806,-2.596444 0.703202,-0.703204 1.568683,-1.054806 2.596444,-1.054806 1.02776,0 1.893241,0.351602 2.596443,1.054806 0.757298,0.703202 1.135946,1.568683 1.135946,2.596444 z m -9.333355,2.039123 c 0,1.027761 -0.378648,1.893242 -1.135946,2.596447 -0.703202,0.703201 -1.568683,1.054803 -2.596444,1.054803 -1.02776,0 -1.893242,-0.351602 -2.596443,-1.054803 -0.703204,-0.703205 -1.054807,-1.568686 -1.054807,-2.596447 0,-1.027758 0.351603,-1.893239 1.054807,-2.596443 0.703201,-0.703204 1.568683,-1.054807 2.596443,-1.054807 1.027761,0 1.893242,0.351603 2.596444,1.054807 0.757298,0.703204 1.135946,1.568685 1.135946,2.596443 z m 26.648834,44.125444 c 0,1.02776 -0.3516,1.893241 -1.0548,2.596445 -0.70321,0.703203 -1.56869,1.054805 -2.59645,1.054805 -1.02776,0 -1.89324,-0.351602 -2.59644,-1.054805 -0.70321,-0.703204 -1.05481,-1.568685 -1.05481,-2.596445 0,-1.027759 0.3516,-1.89324 1.05481,-2.596444 0.7032,-0.703203 1.56868,-1.054805 2.59644,-1.054805 1.02776,0 1.89324,0.351602 2.59645,1.054805 0.7032,0.703204 1.0548,1.568685 1.0548,2.596444 z m -9.49325,-9.249833 c 0,1.02776 -0.37865,1.920287 -1.13594,2.677584 -0.70321,0.703203 -1.54164,1.054805 -2.515315,1.054805 -1.02776,0 -1.920283,-0.351602 -2.677579,-1.054805 -0.703204,-0.757297 -1.054807,-1.649824 -1.054807,-2.677584 0,-1.027759 0.351603,-1.89324 1.054807,-2.596444 0.757296,-0.703203 1.649819,-1.054805 2.677579,-1.054805 1.027765,0 1.893245,0.351602 2.596455,1.054805 0.7032,0.703204 1.0548,1.568685 1.0548,2.596444 z M 86.231436,56.193393 c 0,1.027761 -0.351602,1.920288 -1.054806,2.677584 -0.703202,0.703204 -1.568683,1.054806 -2.596444,1.054806 -1.02776,0 -1.893242,-0.351602 -2.596443,-1.054806 -0.703204,-0.757296 -1.054807,-1.649823 -1.054807,-2.677584 0,-1.02776 0.351603,-1.893241 1.054807,-2.596443 0.703201,-0.703204 1.568683,-1.054807 2.596443,-1.054807 1.027761,0 1.893242,0.351603 2.596444,1.054807 0.703204,0.703202 1.054806,1.568683 1.054806,2.596443 z m 26.811114,44.693417 c 0,1.02776 -0.3516,1.89324 -1.05481,2.59644 -0.7032,0.70321 -1.56868,1.05481 -2.59644,1.05481 -1.02776,0 -1.89324,-0.3516 -2.59644,-1.05481 -0.70321,-0.7032 -1.05481,-1.56868 -1.05481,-2.59644 0,-1.027761 0.3516,-1.893242 1.05481,-2.596446 0.7032,-0.703204 1.56868,-1.054805 2.59644,-1.054805 1.02776,0 1.89324,0.351601 2.59644,1.054805 0.70321,0.703204 1.05481,1.568685 1.05481,2.596446 z m -9.49325,-9.168696 c 0,1.02776 -0.3516,1.893241 -1.05481,2.596445 -0.7032,0.703203 -1.56868,1.054805 -2.596445,1.054805 -1.02776,0 -1.893238,-0.351602 -2.596442,-1.054805 -0.703204,-0.703204 -1.054807,-1.568685 -1.054807,-2.596445 0,-1.027759 0.351603,-1.89324 1.054807,-2.596444 0.703204,-0.703203 1.568682,-1.054805 2.596442,-1.054805 1.027765,0 1.893245,0.351602 2.596445,1.054805 0.70321,0.703204 1.05481,1.568685 1.05481,2.596444 z M 94.666353,79.741309 c 0,1.027759 -0.351602,1.920286 -1.054806,2.677583 -0.703202,0.703203 -1.568683,1.054805 -2.596444,1.054805 -1.027761,0 -1.920287,-0.351602 -2.677583,-1.054805 -0.703204,-0.757297 -1.054807,-1.649824 -1.054807,-2.677583 0,-1.02776 0.351603,-1.893241 1.054807,-2.596445 0.757296,-0.703203 1.649822,-1.054805 2.677583,-1.054805 1.027761,0 1.893242,0.351602 2.596444,1.054805 0.703204,0.703204 1.054806,1.568685 1.054806,2.596445 z m -8.27264,-14.298083 c 0,1.02776 -0.378648,1.893241 -1.135943,2.596445 -0.703205,0.703203 -1.568686,1.054805 -2.596444,1.054805 -1.027761,0 -1.893242,-0.351602 -2.596446,-1.054805 -0.703202,-0.703204 -1.054804,-1.568685 -1.054804,-2.596445 0,-1.027759 0.351602,-1.89324 1.054804,-2.596444 0.703204,-0.703204 1.568685,-1.054806 2.596446,-1.054806 1.027758,0 1.893239,0.351602 2.596444,1.054806 0.757295,0.703204 1.135943,1.568685 1.135943,2.596444 z m -9.574387,-9.249833 c 0,1.027761 -0.351602,1.920288 -1.054806,2.677584 -0.703205,0.703204 -1.568686,1.054806 -2.596444,1.054806 -1.02776,0 -1.893242,-0.351602 -2.596443,-1.054806 -0.703205,-0.757296 -1.054807,-1.649823 -1.054807,-2.677584 0,-1.02776 0.351602,-1.893241 1.054807,-2.596443 0.703201,-0.703204 1.568683,-1.054807 2.596443,-1.054807 1.027758,0 1.893239,0.351603 2.596444,1.054807 0.703204,0.703202 1.054806,1.568683 1.054806,2.596443 z m 26.811114,44.693417 c 0,1.02776 -0.3516,1.89324 -1.05481,2.59644 -0.7032,0.70321 -1.56868,1.05481 -2.596445,1.05481 -1.02776,0 -1.893241,-0.3516 -2.596442,-1.05481 -0.703205,-0.7032 -1.054807,-1.56868 -1.054807,-2.59644 0,-1.027761 0.351602,-1.893242 1.054807,-2.596446 0.703201,-0.703204 1.568682,-1.054805 2.596442,-1.054805 1.027765,0 1.893245,0.351601 2.596445,1.054805 0.70321,0.703204 1.05481,1.568685 1.05481,2.596446 z M 86.474853,74.61192 c 0,1.02776 -0.351602,1.920287 -1.054806,2.677584 -0.703202,0.703203 -1.568683,1.054805 -2.596444,1.054805 -1.027761,0 -1.920288,-0.351602 -2.677583,-1.054805 -0.703205,-0.757297 -1.054807,-1.649824 -1.054807,-2.677584 0,-1.027759 0.351602,-1.89324 1.054807,-2.596444 0.757295,-0.703204 1.649822,-1.054806 2.677583,-1.054806 1.027761,0 1.893242,0.351602 2.596444,1.054806 0.703204,0.703204 1.054806,1.568685 1.054806,2.596444 z m -9.49325,-9.168694 c 0,1.02776 -0.378648,1.893241 -1.135943,2.596445 -0.703205,0.703203 -1.568686,1.054805 -2.596444,1.054805 -1.027761,0 -1.893242,-0.351602 -2.596446,-1.054805 -0.703202,-0.703204 -1.054804,-1.568685 -1.054804,-2.596445 0,-1.027759 0.351602,-1.89324 1.054804,-2.596444 0.703204,-0.703204 1.568685,-1.054806 2.596446,-1.054806 1.027758,0 1.893239,0.351602 2.596444,1.054806 0.757295,0.703204 1.135943,1.568685 1.135943,2.596444 z m 26.811117,44.693414 c 0,1.02776 -0.37865,1.89324 -1.13595,2.59645 -0.7032,0.7032 -1.56868,1.0548 -2.59644,1.0548 -1.027765,0 -1.893246,-0.3516 -2.59645,-1.0548 -0.703202,-0.70321 -1.054804,-1.56869 -1.054804,-2.59645 0,-1.02776 0.351602,-1.89324 1.054804,-2.59644 0.703204,-0.7573 1.568685,-1.13595 2.59645,-1.13595 1.02776,0 1.89324,0.37865 2.59644,1.13595 0.7573,0.7032 1.13595,1.56868 1.13595,2.59644 z m -9.330977,2.03557 c 0,1.02776 -0.378648,1.89324 -1.135947,2.59645 -0.703201,0.7032 -1.568682,1.0548 -2.596443,1.0548 -1.027761,0 -1.893242,-0.3516 -2.596444,-1.0548 -0.703204,-0.70321 -1.054806,-1.56869 -1.054806,-2.59645 0,-1.02776 0.351602,-1.89324 1.054806,-2.59644 0.703202,-0.7573 1.568683,-1.13595 2.596444,-1.13595 1.027761,0 1.893242,0.37865 2.596443,1.13595 0.757299,0.7032 1.135947,1.56868 1.135947,2.59644 z m -9.249834,-1.95439 c 0,1.02776 -0.378647,1.89324 -1.135946,2.59644 -0.703201,0.70321 -1.568683,1.05481 -2.596443,1.05481 -1.027761,0 -1.893242,-0.3516 -2.596444,-1.05481 -0.703204,-0.7032 -1.054806,-1.56868 -1.054806,-2.59644 0,-1.02776 0.351602,-1.89324 1.054806,-2.59644 0.703202,-0.7573 1.568683,-1.13595 2.596444,-1.13595 1.02776,0 1.893242,0.37865 2.596443,1.13595 0.757299,0.7032 1.135946,1.56868 1.135946,2.59644 z m -7.986889,-8.1915 c 0,1.02776 -0.351602,1.89324 -1.054807,2.59645 -0.703201,0.7032 -1.568683,1.0548 -2.596443,1.0548 -1.027758,0 -1.893239,-0.3516 -2.596444,-1.0548 -0.703204,-0.70321 -1.054806,-1.56869 -1.054806,-2.59645 0,-1.02776 0.351602,-1.89324 1.054806,-2.596444 0.703205,-0.703204 1.568686,-1.054806 2.596444,-1.054806 1.02776,0 1.893242,0.351602 2.596443,1.054806 0.703205,0.703204 1.054807,1.568684 1.054807,2.596444 z"
         id="path1384"
         inkscape:connector-curvature="0"
         sodipodi:nodetypes="scssscscsscscscscsscscscscsscssscscsscssssscsssscscscsscscscscsscscscscsscssssscsscscscscsscscscscsscscscscsssscscsssscscscscsscscscscsscscscscsscscscscsscscscscsscssssscs"
         style="font-style:normal;font-variant:normal;font-weight:normal;font-stretch:normal;font-size:medium;line-height:1.25;font-family:'PROG.BOT';-inkscape-font-specification:'PROG.BOT';text-align:center;letter-spacing:0px;word-spacing:0px;text-anchor:middle;fill:#393e46;fill-opacity:1;stroke:none;stroke-width:0.26458332" />
      <ellipse
         style="fill:#00adb5;fill-opacity:0.80784314;stroke:none;stroke-width:0.26458332"
         id="ellipse1416"
         cx="76.097359"
         cy="49.4562"
         rx="1.4410343"
         ry="1.405599" />
      <ellipse
         ry="1.405599"
         rx="1.4410343"
         cy="72.291336"
         cx="76.113571"
         id="ellipse1418"
         style="fill:#f8b500;fill-opacity:0.81960784;stroke:none;stroke-width:0.26458332" />
      <ellipse
         style="fill:#f8b500;fill-opacity:0.81960784;stroke:none;stroke-width:0.26458332"
         id="ellipse1420"
         cx="106.77827"
         cy="84.781914"
         rx="1.4410343"
         ry="1.405599" />
      <ellipse
         ry="1.405599"
         rx="1.4410343"
         cy="107.93295"
         cx="107.34524"
         id="ellipse1422"
         style="fill:#fc3c3c;fill-opacity:0.7372549;stroke:none;stroke-width:0.26458332" />
      <ellipse
         style="fill:#00adb5;fill-opacity:0.80784314;stroke:none;stroke-width:0.26458332"
         id="ellipse1424"
         cx="75.547989"
         cy="107.74397"
         rx="1.4410343"
         ry="1.405599" />
      <ellipse
         style="fill:#fc3c3c;fill-opacity:0.7372549;stroke:none;stroke-width:0.26458332"
         id="ellipse1484"
         cx="107.52335"
         cy="49.827461"
         rx="1.4410343"
         ry="1.405599" />
    </g>
  </g>
</svg>
